solid OpenSCAD_Model
  facet normal 0.982285 0.187395 0
    outer loop
      vertex 17.8581 2.256 20
      vertex 17.4345 4.47642 -20
      vertex 17.4345 4.47642 20
    endloop
  endfacet
  facet normal 0.982285 0.187395 0
    outer loop
      vertex 17.4345 4.47642 -20
      vertex 17.8581 2.256 20
      vertex 17.8581 2.256 -20
    endloop
  endfacet
  facet normal 0.998028 0.0627749 0
    outer loop
      vertex 18 0 20
      vertex 17.8581 2.256 -20
      vertex 17.8581 2.256 20
    endloop
  endfacet
  facet normal 0.998028 0.0627749 0
    outer loop
      vertex 17.8581 2.256 -20
      vertex 18 0 20
      vertex 18 0 -20
    endloop
  endfacet
  facet normal 0.248708 -0.968578 0
    outer loop
      vertex 3.37286 -17.6812 -20
      vertex 5.56231 -17.119 20
      vertex 3.37286 -17.6812 20
    endloop
  endfacet
  facet normal 0.248708 -0.968578 0
    outer loop
      vertex 5.56231 -17.119 20
      vertex 3.37286 -17.6812 -20
      vertex 5.56231 -17.119 -20
    endloop
  endfacet
  facet normal -0.844326 -0.53583 0
    outer loop
      vertex -14.5623 -10.5801 -20
      vertex -15.7735 -8.67157 20
      vertex -15.7735 -8.67157 -20
    endloop
  endfacet
  facet normal -0.844326 -0.53583 0
    outer loop
      vertex -15.7735 -8.67157 20
      vertex -14.5623 -10.5801 -20
      vertex -14.5623 -10.5801 20
    endloop
  endfacet
  facet normal 0.48176 -0.876303 0
    outer loop
      vertex 7.66403 -16.2869 -20
      vertex 9.64488 -15.1979 20
      vertex 7.66403 -16.2869 20
    endloop
  endfacet
  facet normal 0.48176 -0.876303 0
    outer loop
      vertex 9.64488 -15.1979 20
      vertex 7.66403 -16.2869 -20
      vertex 9.64488 -15.1979 -20
    endloop
  endfacet
  facet normal -0.248708 -0.968578 0
    outer loop
      vertex -5.56231 -17.119 -20
      vertex -3.37286 -17.6812 20
      vertex -5.56231 -17.119 20
    endloop
  endfacet
  facet normal -0.248708 -0.968578 -0
    outer loop
      vertex -3.37286 -17.6812 20
      vertex -5.56231 -17.119 -20
      vertex -3.37286 -17.6812 -20
    endloop
  endfacet
  facet normal -0.587802 0.809005 0
    outer loop
      vertex -9.64488 15.1979 -20
      vertex -11.4736 13.8692 20
      vertex -9.64488 15.1979 20
    endloop
  endfacet
  facet normal -0.587802 0.809005 0
    outer loop
      vertex -11.4736 13.8692 20
      vertex -9.64488 15.1979 -20
      vertex -11.4736 13.8692 -20
    endloop
  endfacet
  facet normal -0.48176 -0.876303 0
    outer loop
      vertex -9.64488 -15.1979 -20
      vertex -7.66403 -16.2869 20
      vertex -9.64488 -15.1979 20
    endloop
  endfacet
  facet normal -0.48176 -0.876303 -0
    outer loop
      vertex -7.66403 -16.2869 20
      vertex -9.64488 -15.1979 -20
      vertex -7.66403 -16.2869 -20
    endloop
  endfacet
  facet normal 0.587802 0.809005 -0
    outer loop
      vertex 11.4736 13.8692 -20
      vertex 9.64488 15.1979 20
      vertex 11.4736 13.8692 20
    endloop
  endfacet
  facet normal 0.587802 0.809005 0
    outer loop
      vertex 9.64488 15.1979 20
      vertex 11.4736 13.8692 -20
      vertex 9.64488 15.1979 -20
    endloop
  endfacet
  facet normal -0.982285 0.187395 0
    outer loop
      vertex -17.8581 2.256 -20
      vertex -17.4345 4.47642 20
      vertex -17.4345 4.47642 -20
    endloop
  endfacet
  facet normal -0.982285 0.187395 0
    outer loop
      vertex -17.4345 4.47642 20
      vertex -17.8581 2.256 -20
      vertex -17.8581 2.256 20
    endloop
  endfacet
  facet normal 0.951059 -0.309009 0
    outer loop
      vertex 16.736 -6.62624 20
      vertex 17.4345 -4.47642 -20
      vertex 17.4345 -4.47642 20
    endloop
  endfacet
  facet normal 0.951059 -0.309009 0
    outer loop
      vertex 17.4345 -4.47642 -20
      vertex 16.736 -6.62624 20
      vertex 16.736 -6.62624 -20
    endloop
  endfacet
  facet normal 0.368113 0.929781 -0
    outer loop
      vertex 7.66403 16.2869 -20
      vertex 5.56231 17.119 20
      vertex 7.66403 16.2869 20
    endloop
  endfacet
  facet normal 0.368113 0.929781 0
    outer loop
      vertex 5.56231 17.119 20
      vertex 7.66403 16.2869 -20
      vertex 5.56231 17.119 -20
    endloop
  endfacet
  facet normal -0.951059 0.309009 0
    outer loop
      vertex -17.4345 4.47642 -20
      vertex -16.736 6.62624 20
      vertex -16.736 6.62624 -20
    endloop
  endfacet
  facet normal -0.951059 0.309009 0
    outer loop
      vertex -16.736 6.62624 20
      vertex -17.4345 4.47642 -20
      vertex -17.4345 4.47642 20
    endloop
  endfacet
  facet normal -0.48176 0.876303 0
    outer loop
      vertex -7.66403 16.2869 -20
      vertex -9.64488 15.1979 20
      vertex -7.66403 16.2869 20
    endloop
  endfacet
  facet normal -0.48176 0.876303 0
    outer loop
      vertex -9.64488 15.1979 20
      vertex -7.66403 16.2869 -20
      vertex -9.64488 15.1979 -20
    endloop
  endfacet
  facet normal 0.248708 0.968578 -0
    outer loop
      vertex 5.56231 17.119 -20
      vertex 3.37286 17.6812 20
      vertex 5.56231 17.119 20
    endloop
  endfacet
  facet normal 0.248708 0.968578 0
    outer loop
      vertex 3.37286 17.6812 20
      vertex 5.56231 17.119 -20
      vertex 3.37286 17.6812 -20
    endloop
  endfacet
  facet normal 0.587802 -0.809005 0
    outer loop
      vertex 9.64488 -15.1979 -20
      vertex 11.4736 -13.8692 20
      vertex 9.64488 -15.1979 20
    endloop
  endfacet
  facet normal 0.587802 -0.809005 0
    outer loop
      vertex 11.4736 -13.8692 20
      vertex 9.64488 -15.1979 -20
      vertex 11.4736 -13.8692 -20
    endloop
  endfacet
  facet normal 0.125329 0.992115 -0
    outer loop
      vertex 3.37286 17.6812 -20
      vertex 1.13023 17.9645 20
      vertex 3.37286 17.6812 20
    endloop
  endfacet
  facet normal 0.125329 0.992115 0
    outer loop
      vertex 1.13023 17.9645 20
      vertex 3.37286 17.6812 -20
      vertex 1.13023 17.9645 -20
    endloop
  endfacet
  facet normal -0.982285 -0.187395 0
    outer loop
      vertex -17.4345 -4.47642 -20
      vertex -17.8581 -2.256 20
      vertex -17.8581 -2.256 -20
    endloop
  endfacet
  facet normal -0.982285 -0.187395 0
    outer loop
      vertex -17.8581 -2.256 20
      vertex -17.4345 -4.47642 -20
      vertex -17.4345 -4.47642 20
    endloop
  endfacet
  facet normal -0.90482 0.425794 0
    outer loop
      vertex -16.736 6.62624 -20
      vertex -15.7735 8.67157 20
      vertex -15.7735 8.67157 -20
    endloop
  endfacet
  facet normal -0.90482 0.425794 0
    outer loop
      vertex -15.7735 8.67157 20
      vertex -16.736 6.62624 -20
      vertex -16.736 6.62624 20
    endloop
  endfacet
  facet normal 0.48176 0.876303 -0
    outer loop
      vertex 9.64488 15.1979 -20
      vertex 7.66403 16.2869 20
      vertex 9.64488 15.1979 20
    endloop
  endfacet
  facet normal 0.48176 0.876303 0
    outer loop
      vertex 7.66403 16.2869 20
      vertex 9.64488 15.1979 -20
      vertex 7.66403 16.2869 -20
    endloop
  endfacet
  facet normal -0.998028 -0.0627749 0
    outer loop
      vertex -17.8581 -2.256 -20
      vertex -18 0 20
      vertex -18 0 -20
    endloop
  endfacet
  facet normal -0.998028 -0.0627749 0
    outer loop
      vertex -18 0 20
      vertex -17.8581 -2.256 -20
      vertex -17.8581 -2.256 20
    endloop
  endfacet
  facet normal 0.844326 0.53583 0
    outer loop
      vertex 15.7735 8.67157 20
      vertex 14.5623 10.5801 -20
      vertex 14.5623 10.5801 20
    endloop
  endfacet
  facet normal 0.844326 0.53583 0
    outer loop
      vertex 14.5623 10.5801 -20
      vertex 15.7735 8.67157 20
      vertex 15.7735 8.67157 -20
    endloop
  endfacet
  facet normal -0.125329 -0.992115 0
    outer loop
      vertex -3.37286 -17.6812 -20
      vertex -1.13023 -17.9645 20
      vertex -3.37286 -17.6812 20
    endloop
  endfacet
  facet normal -0.125329 -0.992115 -0
    outer loop
      vertex -1.13023 -17.9645 20
      vertex -3.37286 -17.6812 -20
      vertex -1.13023 -17.9645 -20
    endloop
  endfacet
  facet normal 0.68455 -0.728966 0
    outer loop
      vertex 11.4736 -13.8692 -20
      vertex 13.1214 -12.3218 20
      vertex 11.4736 -13.8692 20
    endloop
  endfacet
  facet normal 0.68455 -0.728966 0
    outer loop
      vertex 13.1214 -12.3218 20
      vertex 11.4736 -13.8692 -20
      vertex 13.1214 -12.3218 -20
    endloop
  endfacet
  facet normal 0.90482 -0.425794 0
    outer loop
      vertex 15.7735 -8.67157 20
      vertex 16.736 -6.62624 -20
      vertex 16.736 -6.62624 20
    endloop
  endfacet
  facet normal 0.90482 -0.425794 0
    outer loop
      vertex 16.736 -6.62624 -20
      vertex 15.7735 -8.67157 20
      vertex 15.7735 -8.67157 -20
    endloop
  endfacet
  facet normal 0.368113 -0.929781 0
    outer loop
      vertex 5.56231 -17.119 -20
      vertex 7.66403 -16.2869 20
      vertex 5.56231 -17.119 20
    endloop
  endfacet
  facet normal 0.368113 -0.929781 0
    outer loop
      vertex 7.66403 -16.2869 20
      vertex 5.56231 -17.119 -20
      vertex 7.66403 -16.2869 -20
    endloop
  endfacet
  facet normal 0.90482 0.425794 0
    outer loop
      vertex 16.736 6.62624 20
      vertex 15.7735 8.67157 -20
      vertex 15.7735 8.67157 20
    endloop
  endfacet
  facet normal 0.90482 0.425794 0
    outer loop
      vertex 15.7735 8.67157 -20
      vertex 16.736 6.62624 20
      vertex 16.736 6.62624 -20
    endloop
  endfacet
  facet normal -0.368113 0.929781 0
    outer loop
      vertex -5.56231 17.119 -20
      vertex -7.66403 16.2869 20
      vertex -5.56231 17.119 20
    endloop
  endfacet
  facet normal -0.368113 0.929781 0
    outer loop
      vertex -7.66403 16.2869 20
      vertex -5.56231 17.119 -20
      vertex -7.66403 16.2869 -20
    endloop
  endfacet
  facet normal -0.90482 -0.425794 0
    outer loop
      vertex -15.7735 -8.67157 -20
      vertex -16.736 -6.62624 20
      vertex -16.736 -6.62624 -20
    endloop
  endfacet
  facet normal -0.90482 -0.425794 0
    outer loop
      vertex -16.736 -6.62624 20
      vertex -15.7735 -8.67157 -20
      vertex -15.7735 -8.67157 20
    endloop
  endfacet
  facet normal 0.998028 -0.0627749 0
    outer loop
      vertex 17.8581 -2.256 20
      vertex 18 0 -20
      vertex 18 0 20
    endloop
  endfacet
  facet normal 0.998028 -0.0627749 0
    outer loop
      vertex 18 0 -20
      vertex 17.8581 -2.256 20
      vertex 17.8581 -2.256 -20
    endloop
  endfacet
  facet normal 0.982285 -0.187395 0
    outer loop
      vertex 17.4345 -4.47642 20
      vertex 17.8581 -2.256 -20
      vertex 17.8581 -2.256 20
    endloop
  endfacet
  facet normal 0.982285 -0.187395 0
    outer loop
      vertex 17.8581 -2.256 -20
      vertex 17.4345 -4.47642 20
      vertex 17.4345 -4.47642 -20
    endloop
  endfacet
  facet normal 0.125329 -0.992115 0
    outer loop
      vertex 1.13023 -17.9645 -20
      vertex 3.37286 -17.6812 20
      vertex 1.13023 -17.9645 20
    endloop
  endfacet
  facet normal 0.125329 -0.992115 0
    outer loop
      vertex 3.37286 -17.6812 20
      vertex 1.13023 -17.9645 -20
      vertex 3.37286 -17.6812 -20
    endloop
  endfacet
  facet normal -0.125329 0.992115 0
    outer loop
      vertex -1.13023 17.9645 -20
      vertex -3.37286 17.6812 20
      vertex -1.13023 17.9645 20
    endloop
  endfacet
  facet normal -0.125329 0.992115 0
    outer loop
      vertex -3.37286 17.6812 20
      vertex -1.13023 17.9645 -20
      vertex -3.37286 17.6812 -20
    endloop
  endfacet
  facet normal -0.951059 -0.309009 0
    outer loop
      vertex -16.736 -6.62624 -20
      vertex -17.4345 -4.47642 20
      vertex -17.4345 -4.47642 -20
    endloop
  endfacet
  facet normal -0.951059 -0.309009 0
    outer loop
      vertex -17.4345 -4.47642 20
      vertex -16.736 -6.62624 -20
      vertex -16.736 -6.62624 20
    endloop
  endfacet
  facet normal -0.770504 0.637435 0
    outer loop
      vertex -14.5623 10.5801 -20
      vertex -13.1214 12.3218 20
      vertex -13.1214 12.3218 -20
    endloop
  endfacet
  facet normal -0.770504 0.637435 0
    outer loop
      vertex -13.1214 12.3218 20
      vertex -14.5623 10.5801 -20
      vertex -14.5623 10.5801 20
    endloop
  endfacet
  facet normal -0.770504 -0.637435 0
    outer loop
      vertex -13.1214 -12.3218 -20
      vertex -14.5623 -10.5801 20
      vertex -14.5623 -10.5801 -20
    endloop
  endfacet
  facet normal -0.770504 -0.637435 0
    outer loop
      vertex -14.5623 -10.5801 20
      vertex -13.1214 -12.3218 -20
      vertex -13.1214 -12.3218 20
    endloop
  endfacet
  facet normal -0.587802 -0.809005 0
    outer loop
      vertex -11.4736 -13.8692 -20
      vertex -9.64488 -15.1979 20
      vertex -11.4736 -13.8692 20
    endloop
  endfacet
  facet normal -0.587802 -0.809005 -0
    outer loop
      vertex -9.64488 -15.1979 20
      vertex -11.4736 -13.8692 -20
      vertex -9.64488 -15.1979 -20
    endloop
  endfacet
  facet normal -0.998028 0.0627749 0
    outer loop
      vertex -18 0 -20
      vertex -17.8581 2.256 20
      vertex -17.8581 2.256 -20
    endloop
  endfacet
  facet normal -0.998028 0.0627749 0
    outer loop
      vertex -17.8581 2.256 20
      vertex -18 0 -20
      vertex -18 0 20
    endloop
  endfacet
  facet normal -0.368113 -0.929781 0
    outer loop
      vertex -7.66403 -16.2869 -20
      vertex -5.56231 -17.119 20
      vertex -7.66403 -16.2869 20
    endloop
  endfacet
  facet normal -0.368113 -0.929781 -0
    outer loop
      vertex -5.56231 -17.119 20
      vertex -7.66403 -16.2869 -20
      vertex -5.56231 -17.119 -20
    endloop
  endfacet
  facet normal 0 0 -1
    outer loop
      vertex 15 0 -20
      vertex 18 0 -20
      vertex 17.8581 -2.256 -20
    endloop
  endfacet
  facet normal 0 0 -1
    outer loop
      vertex 14.8817 -1.88 -20
      vertex 17.8581 -2.256 -20
      vertex 17.4345 -4.47642 -20
    endloop
  endfacet
  facet normal 0 0 -1
    outer loop
      vertex 18 0 -20
      vertex 15 0 -20
      vertex 17.8581 2.256 -20
    endloop
  endfacet
  facet normal 0 0 -1
    outer loop
      vertex 14.5287 -3.73035 -20
      vertex 17.4345 -4.47642 -20
      vertex 16.736 -6.62624 -20
    endloop
  endfacet
  facet normal 0 0 -1
    outer loop
      vertex 14.8817 1.88 -20
      vertex 17.8581 2.256 -20
      vertex 15 0 -20
    endloop
  endfacet
  facet normal 0 0 -1
    outer loop
      vertex 13.9466 -5.52187 -20
      vertex 16.736 -6.62624 -20
      vertex 15.7735 -8.67157 -20
    endloop
  endfacet
  facet normal -0 0 -1
    outer loop
      vertex 17.8581 2.256 -20
      vertex 14.8817 1.88 -20
      vertex 17.4345 4.47642 -20
    endloop
  endfacet
  facet normal 0 0 -1
    outer loop
      vertex 14.5287 3.73035 -20
      vertex 17.4345 4.47642 -20
      vertex 14.8817 1.88 -20
    endloop
  endfacet
  facet normal 0 0 -1
    outer loop
      vertex 17.8581 -2.256 -20
      vertex 14.8817 -1.88 -20
      vertex 15 0 -20
    endloop
  endfacet
  facet normal 0 0 -1
    outer loop
      vertex 13.1446 -7.22631 -20
      vertex 15.7735 -8.67157 -20
      vertex 14.5623 -10.5801 -20
    endloop
  endfacet
  facet normal 0 0 -1
    outer loop
      vertex 17.4345 -4.47642 -20
      vertex 14.5287 -3.73035 -20
      vertex 14.8817 -1.88 -20
    endloop
  endfacet
  facet normal 0 0 -1
    outer loop
      vertex 16.736 -6.62624 -20
      vertex 13.9466 -5.52187 -20
      vertex 14.5287 -3.73035 -20
    endloop
  endfacet
  facet normal 0 0 -1
    outer loop
      vertex 15.7735 -8.67157 -20
      vertex 13.1446 -7.22631 -20
      vertex 13.9466 -5.52187 -20
    endloop
  endfacet
  facet normal 0 0 -1
    outer loop
      vertex 12.1353 -8.81678 -20
      vertex 14.5623 -10.5801 -20
      vertex 13.1214 -12.3218 -20
    endloop
  endfacet
  facet normal 0 0 -1
    outer loop
      vertex 14.5623 -10.5801 -20
      vertex 12.1353 -8.81678 -20
      vertex 13.1446 -7.22631 -20
    endloop
  endfacet
  facet normal 0 0 -1
    outer loop
      vertex 10.9345 -10.2682 -20
      vertex 13.1214 -12.3218 -20
      vertex 11.4736 -13.8692 -20
    endloop
  endfacet
  facet normal 0 0 -1
    outer loop
      vertex 13.1214 -12.3218 -20
      vertex 10.9345 -10.2682 -20
      vertex 12.1353 -8.81678 -20
    endloop
  endfacet
  facet normal 0 0 -1
    outer loop
      vertex 9.56136 -11.5577 -20
      vertex 11.4736 -13.8692 -20
      vertex 9.64488 -15.1979 -20
    endloop
  endfacet
  facet normal 0 0 -1
    outer loop
      vertex 11.4736 -13.8692 -20
      vertex 9.56136 -11.5577 -20
      vertex 10.9345 -10.2682 -20
    endloop
  endfacet
  facet normal 0 0 -1
    outer loop
      vertex 9.64488 -15.1979 -20
      vertex 8.0374 -12.6649 -20
      vertex 9.56136 -11.5577 -20
    endloop
  endfacet
  facet normal 0 0 -1
    outer loop
      vertex 7.66403 -16.2869 -20
      vertex 8.0374 -12.6649 -20
      vertex 9.64488 -15.1979 -20
    endloop
  endfacet
  facet normal 0 0 -1
    outer loop
      vertex 7.66403 -16.2869 -20
      vertex 6.38669 -13.5724 -20
      vertex 8.0374 -12.6649 -20
    endloop
  endfacet
  facet normal 0 0 -1
    outer loop
      vertex 5.56231 -17.119 -20
      vertex 6.38669 -13.5724 -20
      vertex 7.66403 -16.2869 -20
    endloop
  endfacet
  facet normal 0 0 -1
    outer loop
      vertex 5.56231 -17.119 -20
      vertex 4.63525 -14.2658 -20
      vertex 6.38669 -13.5724 -20
    endloop
  endfacet
  facet normal 0 0 -1
    outer loop
      vertex 3.37286 -17.6812 -20
      vertex 4.63525 -14.2658 -20
      vertex 5.56231 -17.119 -20
    endloop
  endfacet
  facet normal 0 0 -1
    outer loop
      vertex 3.37286 -17.6812 -20
      vertex 2.81072 -14.7343 -20
      vertex 4.63525 -14.2658 -20
    endloop
  endfacet
  facet normal 0 0 -1
    outer loop
      vertex 1.13023 -17.9645 -20
      vertex 2.81072 -14.7343 -20
      vertex 3.37286 -17.6812 -20
    endloop
  endfacet
  facet normal 0 0 -1
    outer loop
      vertex 1.13023 -17.9645 -20
      vertex 0.941857 -14.9704 -20
      vertex 2.81072 -14.7343 -20
    endloop
  endfacet
  facet normal 0 0 -1
    outer loop
      vertex 1.13023 -17.9645 -20
      vertex -0.941857 -14.9704 -20
      vertex 0.941857 -14.9704 -20
    endloop
  endfacet
  facet normal 0 0 -1
    outer loop
      vertex -1.13023 -17.9645 -20
      vertex -0.941857 -14.9704 -20
      vertex 1.13023 -17.9645 -20
    endloop
  endfacet
  facet normal 0 0 -1
    outer loop
      vertex -1.13023 -17.9645 -20
      vertex -2.81072 -14.7343 -20
      vertex -0.941857 -14.9704 -20
    endloop
  endfacet
  facet normal 0 0 -1
    outer loop
      vertex -3.37286 -17.6812 -20
      vertex -2.81072 -14.7343 -20
      vertex -1.13023 -17.9645 -20
    endloop
  endfacet
  facet normal 0 0 -1
    outer loop
      vertex -3.37286 -17.6812 -20
      vertex -4.63525 -14.2658 -20
      vertex -2.81072 -14.7343 -20
    endloop
  endfacet
  facet normal 0 0 -1
    outer loop
      vertex -5.56231 -17.119 -20
      vertex -4.63525 -14.2658 -20
      vertex -3.37286 -17.6812 -20
    endloop
  endfacet
  facet normal 0 0 -1
    outer loop
      vertex -5.56231 -17.119 -20
      vertex -6.38669 -13.5724 -20
      vertex -4.63525 -14.2658 -20
    endloop
  endfacet
  facet normal 0 0 -1
    outer loop
      vertex -7.66403 -16.2869 -20
      vertex -6.38669 -13.5724 -20
      vertex -5.56231 -17.119 -20
    endloop
  endfacet
  facet normal 0 0 -1
    outer loop
      vertex -7.66403 -16.2869 -20
      vertex -8.0374 -12.6649 -20
      vertex -6.38669 -13.5724 -20
    endloop
  endfacet
  facet normal 0 0 -1
    outer loop
      vertex -9.64488 -15.1979 -20
      vertex -8.0374 -12.6649 -20
      vertex -7.66403 -16.2869 -20
    endloop
  endfacet
  facet normal -0 0 -1
    outer loop
      vertex -8.0374 -12.6649 -20
      vertex -9.64488 -15.1979 -20
      vertex -9.56136 -11.5577 -20
    endloop
  endfacet
  facet normal 0 0 -1
    outer loop
      vertex -11.4736 -13.8692 -20
      vertex -9.56136 -11.5577 -20
      vertex -9.64488 -15.1979 -20
    endloop
  endfacet
  facet normal -0 0 -1
    outer loop
      vertex -9.56136 -11.5577 -20
      vertex -11.4736 -13.8692 -20
      vertex -10.9345 -10.2682 -20
    endloop
  endfacet
  facet normal 0 0 -1
    outer loop
      vertex -13.1214 -12.3218 -20
      vertex -10.9345 -10.2682 -20
      vertex -11.4736 -13.8692 -20
    endloop
  endfacet
  facet normal -0 0 -1
    outer loop
      vertex -10.9345 -10.2682 -20
      vertex -13.1214 -12.3218 -20
      vertex -12.1353 -8.81678 -20
    endloop
  endfacet
  facet normal 0 0 -1
    outer loop
      vertex -14.5623 -10.5801 -20
      vertex -12.1353 -8.81678 -20
      vertex -13.1214 -12.3218 -20
    endloop
  endfacet
  facet normal -0 0 -1
    outer loop
      vertex -12.1353 -8.81678 -20
      vertex -14.5623 -10.5801 -20
      vertex -13.1446 -7.22631 -20
    endloop
  endfacet
  facet normal 0 0 -1
    outer loop
      vertex -15.7735 -8.67157 -20
      vertex -13.1446 -7.22631 -20
      vertex -14.5623 -10.5801 -20
    endloop
  endfacet
  facet normal -0 0 -1
    outer loop
      vertex -13.1446 -7.22631 -20
      vertex -15.7735 -8.67157 -20
      vertex -13.9466 -5.52187 -20
    endloop
  endfacet
  facet normal 0 0 -1
    outer loop
      vertex -16.736 -6.62624 -20
      vertex -13.9466 -5.52187 -20
      vertex -15.7735 -8.67157 -20
    endloop
  endfacet
  facet normal -0 0 -1
    outer loop
      vertex -13.9466 -5.52187 -20
      vertex -16.736 -6.62624 -20
      vertex -14.5287 -3.73035 -20
    endloop
  endfacet
  facet normal 0 0 -1
    outer loop
      vertex -17.4345 -4.47642 -20
      vertex -14.5287 -3.73035 -20
      vertex -16.736 -6.62624 -20
    endloop
  endfacet
  facet normal -0 0 -1
    outer loop
      vertex 17.4345 4.47642 -20
      vertex 14.5287 3.73035 -20
      vertex 16.736 6.62624 -20
    endloop
  endfacet
  facet normal 0 0 -1
    outer loop
      vertex 13.9466 5.52187 -20
      vertex 16.736 6.62624 -20
      vertex 14.5287 3.73035 -20
    endloop
  endfacet
  facet normal -0 0 -1
    outer loop
      vertex 16.736 6.62624 -20
      vertex 13.9466 5.52187 -20
      vertex 15.7735 8.67157 -20
    endloop
  endfacet
  facet normal 0 0 -1
    outer loop
      vertex 13.1446 7.22631 -20
      vertex 15.7735 8.67157 -20
      vertex 13.9466 5.52187 -20
    endloop
  endfacet
  facet normal -0 0 -1
    outer loop
      vertex 15.7735 8.67157 -20
      vertex 13.1446 7.22631 -20
      vertex 14.5623 10.5801 -20
    endloop
  endfacet
  facet normal 0 0 -1
    outer loop
      vertex 12.1353 8.81678 -20
      vertex 14.5623 10.5801 -20
      vertex 13.1446 7.22631 -20
    endloop
  endfacet
  facet normal -0 0 -1
    outer loop
      vertex 14.5623 10.5801 -20
      vertex 12.1353 8.81678 -20
      vertex 13.1214 12.3218 -20
    endloop
  endfacet
  facet normal 0 0 -1
    outer loop
      vertex 10.9345 10.2682 -20
      vertex 13.1214 12.3218 -20
      vertex 12.1353 8.81678 -20
    endloop
  endfacet
  facet normal -0 0 -1
    outer loop
      vertex 13.1214 12.3218 -20
      vertex 10.9345 10.2682 -20
      vertex 11.4736 13.8692 -20
    endloop
  endfacet
  facet normal 0 0 -1
    outer loop
      vertex 9.56136 11.5577 -20
      vertex 11.4736 13.8692 -20
      vertex 10.9345 10.2682 -20
    endloop
  endfacet
  facet normal -0 0 -1
    outer loop
      vertex 11.4736 13.8692 -20
      vertex 9.56136 11.5577 -20
      vertex 9.64488 15.1979 -20
    endloop
  endfacet
  facet normal 0 0 -1
    outer loop
      vertex 8.0374 12.6649 -20
      vertex 9.64488 15.1979 -20
      vertex 9.56136 11.5577 -20
    endloop
  endfacet
  facet normal 0 0 -1
    outer loop
      vertex 8.0374 12.6649 -20
      vertex 7.66403 16.2869 -20
      vertex 9.64488 15.1979 -20
    endloop
  endfacet
  facet normal 0 0 -1
    outer loop
      vertex 6.38669 13.5724 -20
      vertex 7.66403 16.2869 -20
      vertex 8.0374 12.6649 -20
    endloop
  endfacet
  facet normal 0 0 -1
    outer loop
      vertex 6.38669 13.5724 -20
      vertex 5.56231 17.119 -20
      vertex 7.66403 16.2869 -20
    endloop
  endfacet
  facet normal 0 0 -1
    outer loop
      vertex 4.63525 14.2658 -20
      vertex 5.56231 17.119 -20
      vertex 6.38669 13.5724 -20
    endloop
  endfacet
  facet normal 0 0 -1
    outer loop
      vertex 4.63525 14.2658 -20
      vertex 3.37286 17.6812 -20
      vertex 5.56231 17.119 -20
    endloop
  endfacet
  facet normal 0 0 -1
    outer loop
      vertex 2.81072 14.7343 -20
      vertex 3.37286 17.6812 -20
      vertex 4.63525 14.2658 -20
    endloop
  endfacet
  facet normal 0 0 -1
    outer loop
      vertex 2.81072 14.7343 -20
      vertex 1.13023 17.9645 -20
      vertex 3.37286 17.6812 -20
    endloop
  endfacet
  facet normal 0 0 -1
    outer loop
      vertex 0.941857 14.9704 -20
      vertex 1.13023 17.9645 -20
      vertex 2.81072 14.7343 -20
    endloop
  endfacet
  facet normal 0 0 -1
    outer loop
      vertex -0.941857 14.9704 -20
      vertex 1.13023 17.9645 -20
      vertex 0.941857 14.9704 -20
    endloop
  endfacet
  facet normal 0 0 -1
    outer loop
      vertex -0.941857 14.9704 -20
      vertex -1.13023 17.9645 -20
      vertex 1.13023 17.9645 -20
    endloop
  endfacet
  facet normal 0 0 -1
    outer loop
      vertex -2.81072 14.7343 -20
      vertex -1.13023 17.9645 -20
      vertex -0.941857 14.9704 -20
    endloop
  endfacet
  facet normal 0 0 -1
    outer loop
      vertex -2.81072 14.7343 -20
      vertex -3.37286 17.6812 -20
      vertex -1.13023 17.9645 -20
    endloop
  endfacet
  facet normal 0 0 -1
    outer loop
      vertex -4.63525 14.2658 -20
      vertex -3.37286 17.6812 -20
      vertex -2.81072 14.7343 -20
    endloop
  endfacet
  facet normal 0 0 -1
    outer loop
      vertex -4.63525 14.2658 -20
      vertex -5.56231 17.119 -20
      vertex -3.37286 17.6812 -20
    endloop
  endfacet
  facet normal 0 0 -1
    outer loop
      vertex -6.38669 13.5724 -20
      vertex -5.56231 17.119 -20
      vertex -4.63525 14.2658 -20
    endloop
  endfacet
  facet normal 0 0 -1
    outer loop
      vertex -6.38669 13.5724 -20
      vertex -7.66403 16.2869 -20
      vertex -5.56231 17.119 -20
    endloop
  endfacet
  facet normal 0 0 -1
    outer loop
      vertex -8.0374 12.6649 -20
      vertex -7.66403 16.2869 -20
      vertex -6.38669 13.5724 -20
    endloop
  endfacet
  facet normal 0 0 -1
    outer loop
      vertex -9.64488 15.1979 -20
      vertex -8.0374 12.6649 -20
      vertex -9.56136 11.5577 -20
    endloop
  endfacet
  facet normal 0 0 -1
    outer loop
      vertex -8.0374 12.6649 -20
      vertex -9.64488 15.1979 -20
      vertex -7.66403 16.2869 -20
    endloop
  endfacet
  facet normal 0 0 -1
    outer loop
      vertex -11.4736 13.8692 -20
      vertex -9.56136 11.5577 -20
      vertex -10.9345 10.2682 -20
    endloop
  endfacet
  facet normal 0 0 -1
    outer loop
      vertex -9.56136 11.5577 -20
      vertex -11.4736 13.8692 -20
      vertex -9.64488 15.1979 -20
    endloop
  endfacet
  facet normal 0 0 -1
    outer loop
      vertex -13.1214 12.3218 -20
      vertex -10.9345 10.2682 -20
      vertex -12.1353 8.81678 -20
    endloop
  endfacet
  facet normal 0 0 -1
    outer loop
      vertex -10.9345 10.2682 -20
      vertex -13.1214 12.3218 -20
      vertex -11.4736 13.8692 -20
    endloop
  endfacet
  facet normal 0 0 -1
    outer loop
      vertex -14.5623 10.5801 -20
      vertex -12.1353 8.81678 -20
      vertex -13.1446 7.22631 -20
    endloop
  endfacet
  facet normal 0 0 -1
    outer loop
      vertex -15.7735 8.67157 -20
      vertex -13.1446 7.22631 -20
      vertex -13.9466 5.52187 -20
    endloop
  endfacet
  facet normal 0 0 -1
    outer loop
      vertex -16.736 6.62624 -20
      vertex -13.9466 5.52187 -20
      vertex -14.5287 3.73035 -20
    endloop
  endfacet
  facet normal 0 0 -1
    outer loop
      vertex -12.1353 8.81678 -20
      vertex -14.5623 10.5801 -20
      vertex -13.1214 12.3218 -20
    endloop
  endfacet
  facet normal 0 0 -1
    outer loop
      vertex -17.4345 4.47642 -20
      vertex -14.5287 3.73035 -20
      vertex -14.8817 1.88 -20
    endloop
  endfacet
  facet normal 0 0 -1
    outer loop
      vertex -17.8581 2.256 -20
      vertex -14.8817 1.88 -20
      vertex -15 0 -20
    endloop
  endfacet
  facet normal -0 0 -1
    outer loop
      vertex -14.5287 -3.73035 -20
      vertex -17.4345 -4.47642 -20
      vertex -14.8817 -1.88 -20
    endloop
  endfacet
  facet normal 0 0 -1
    outer loop
      vertex -13.1446 7.22631 -20
      vertex -15.7735 8.67157 -20
      vertex -14.5623 10.5801 -20
    endloop
  endfacet
  facet normal 0 0 -1
    outer loop
      vertex -17.8581 -2.256 -20
      vertex -14.8817 -1.88 -20
      vertex -17.4345 -4.47642 -20
    endloop
  endfacet
  facet normal 0 0 -1
    outer loop
      vertex -13.9466 5.52187 -20
      vertex -16.736 6.62624 -20
      vertex -15.7735 8.67157 -20
    endloop
  endfacet
  facet normal -0 0 -1
    outer loop
      vertex -14.8817 -1.88 -20
      vertex -17.8581 -2.256 -20
      vertex -15 0 -20
    endloop
  endfacet
  facet normal 0 0 -1
    outer loop
      vertex -14.5287 3.73035 -20
      vertex -17.4345 4.47642 -20
      vertex -16.736 6.62624 -20
    endloop
  endfacet
  facet normal 0 0 -1
    outer loop
      vertex -18 0 -20
      vertex -15 0 -20
      vertex -17.8581 -2.256 -20
    endloop
  endfacet
  facet normal 0 0 -1
    outer loop
      vertex -14.8817 1.88 -20
      vertex -17.8581 2.256 -20
      vertex -17.4345 4.47642 -20
    endloop
  endfacet
  facet normal 0 0 -1
    outer loop
      vertex -15 0 -20
      vertex -18 0 -20
      vertex -17.8581 2.256 -20
    endloop
  endfacet
  facet normal 0.844326 -0.53583 0
    outer loop
      vertex 14.5623 -10.5801 20
      vertex 15.7735 -8.67157 -20
      vertex 15.7735 -8.67157 20
    endloop
  endfacet
  facet normal 0.844326 -0.53583 0
    outer loop
      vertex 15.7735 -8.67157 -20
      vertex 14.5623 -10.5801 20
      vertex 14.5623 -10.5801 -20
    endloop
  endfacet
  facet normal 0.951059 0.309009 0
    outer loop
      vertex 17.4345 4.47642 20
      vertex 16.736 6.62624 -20
      vertex 16.736 6.62624 20
    endloop
  endfacet
  facet normal 0.951059 0.309009 0
    outer loop
      vertex 16.736 6.62624 -20
      vertex 17.4345 4.47642 20
      vertex 17.4345 4.47642 -20
    endloop
  endfacet
  facet normal -0.248708 0.968578 0
    outer loop
      vertex -3.37286 17.6812 -20
      vertex -5.56231 17.119 20
      vertex -3.37286 17.6812 20
    endloop
  endfacet
  facet normal -0.248708 0.968578 0
    outer loop
      vertex -5.56231 17.119 20
      vertex -3.37286 17.6812 -20
      vertex -5.56231 17.119 -20
    endloop
  endfacet
  facet normal 0 -1 0
    outer loop
      vertex -1.13023 -17.9645 -20
      vertex 1.13023 -17.9645 20
      vertex -1.13023 -17.9645 20
    endloop
  endfacet
  facet normal 0 -1 -0
    outer loop
      vertex 1.13023 -17.9645 20
      vertex -1.13023 -17.9645 -20
      vertex 1.13023 -17.9645 -20
    endloop
  endfacet
  facet normal 0.68455 0.728966 -0
    outer loop
      vertex 13.1214 12.3218 -20
      vertex 11.4736 13.8692 20
      vertex 13.1214 12.3218 20
    endloop
  endfacet
  facet normal 0.68455 0.728966 0
    outer loop
      vertex 11.4736 13.8692 20
      vertex 13.1214 12.3218 -20
      vertex 11.4736 13.8692 -20
    endloop
  endfacet
  facet normal 0.770504 0.637435 0
    outer loop
      vertex 14.5623 10.5801 20
      vertex 13.1214 12.3218 -20
      vertex 13.1214 12.3218 20
    endloop
  endfacet
  facet normal 0.770504 0.637435 0
    outer loop
      vertex 13.1214 12.3218 -20
      vertex 14.5623 10.5801 20
      vertex 14.5623 10.5801 -20
    endloop
  endfacet
  facet normal -0.68455 0.728966 0
    outer loop
      vertex -11.4736 13.8692 -20
      vertex -13.1214 12.3218 20
      vertex -11.4736 13.8692 20
    endloop
  endfacet
  facet normal -0.68455 0.728966 0
    outer loop
      vertex -13.1214 12.3218 20
      vertex -11.4736 13.8692 -20
      vertex -13.1214 12.3218 -20
    endloop
  endfacet
  facet normal -0.68455 -0.728966 0
    outer loop
      vertex -13.1214 -12.3218 -20
      vertex -11.4736 -13.8692 20
      vertex -13.1214 -12.3218 20
    endloop
  endfacet
  facet normal -0.68455 -0.728966 -0
    outer loop
      vertex -11.4736 -13.8692 20
      vertex -13.1214 -12.3218 -20
      vertex -11.4736 -13.8692 -20
    endloop
  endfacet
  facet normal 0 1 -0
    outer loop
      vertex 1.13023 17.9645 -20
      vertex -1.13023 17.9645 20
      vertex 1.13023 17.9645 20
    endloop
  endfacet
  facet normal 0 1 0
    outer loop
      vertex -1.13023 17.9645 20
      vertex 1.13023 17.9645 -20
      vertex -1.13023 17.9645 -20
    endloop
  endfacet
  facet normal 0 0 1
    outer loop
      vertex 15 0 20
      vertex 18 0 20
      vertex 17.8581 2.256 20
    endloop
  endfacet
  facet normal 0 0 1
    outer loop
      vertex 14.8817 1.88 20
      vertex 17.8581 2.256 20
      vertex 17.4345 4.47642 20
    endloop
  endfacet
  facet normal 0 0 1
    outer loop
      vertex 18 0 20
      vertex 15 0 20
      vertex 17.8581 -2.256 20
    endloop
  endfacet
  facet normal 0 0 1
    outer loop
      vertex 14.5287 3.73035 20
      vertex 17.4345 4.47642 20
      vertex 16.736 6.62624 20
    endloop
  endfacet
  facet normal -0 0 1
    outer loop
      vertex 14.8817 -1.88 20
      vertex 17.8581 -2.256 20
      vertex 15 0 20
    endloop
  endfacet
  facet normal 0 0 1
    outer loop
      vertex 13.9466 5.52187 20
      vertex 16.736 6.62624 20
      vertex 15.7735 8.67157 20
    endloop
  endfacet
  facet normal 0 0 1
    outer loop
      vertex 17.8581 -2.256 20
      vertex 14.8817 -1.88 20
      vertex 17.4345 -4.47642 20
    endloop
  endfacet
  facet normal -0 0 1
    outer loop
      vertex 14.5287 -3.73035 20
      vertex 17.4345 -4.47642 20
      vertex 14.8817 -1.88 20
    endloop
  endfacet
  facet normal 0 0 1
    outer loop
      vertex 17.8581 2.256 20
      vertex 14.8817 1.88 20
      vertex 15 0 20
    endloop
  endfacet
  facet normal 0 0 1
    outer loop
      vertex 13.1446 7.22631 20
      vertex 15.7735 8.67157 20
      vertex 14.5623 10.5801 20
    endloop
  endfacet
  facet normal 0 0 1
    outer loop
      vertex 17.4345 4.47642 20
      vertex 14.5287 3.73035 20
      vertex 14.8817 1.88 20
    endloop
  endfacet
  facet normal 0 0 1
    outer loop
      vertex 16.736 6.62624 20
      vertex 13.9466 5.52187 20
      vertex 14.5287 3.73035 20
    endloop
  endfacet
  facet normal 0 0 1
    outer loop
      vertex 15.7735 8.67157 20
      vertex 13.1446 7.22631 20
      vertex 13.9466 5.52187 20
    endloop
  endfacet
  facet normal 0 0 1
    outer loop
      vertex 12.1353 8.81678 20
      vertex 14.5623 10.5801 20
      vertex 13.1214 12.3218 20
    endloop
  endfacet
  facet normal 0 0 1
    outer loop
      vertex 14.5623 10.5801 20
      vertex 12.1353 8.81678 20
      vertex 13.1446 7.22631 20
    endloop
  endfacet
  facet normal 0 0 1
    outer loop
      vertex 10.9345 10.2682 20
      vertex 13.1214 12.3218 20
      vertex 11.4736 13.8692 20
    endloop
  endfacet
  facet normal 0 0 1
    outer loop
      vertex 13.1214 12.3218 20
      vertex 10.9345 10.2682 20
      vertex 12.1353 8.81678 20
    endloop
  endfacet
  facet normal 0 0 1
    outer loop
      vertex 9.56136 11.5577 20
      vertex 11.4736 13.8692 20
      vertex 9.64488 15.1979 20
    endloop
  endfacet
  facet normal 0 0 1
    outer loop
      vertex 11.4736 13.8692 20
      vertex 9.56136 11.5577 20
      vertex 10.9345 10.2682 20
    endloop
  endfacet
  facet normal 0 0 1
    outer loop
      vertex 9.64488 15.1979 20
      vertex 8.0374 12.6649 20
      vertex 9.56136 11.5577 20
    endloop
  endfacet
  facet normal 0 0 1
    outer loop
      vertex 7.66403 16.2869 20
      vertex 8.0374 12.6649 20
      vertex 9.64488 15.1979 20
    endloop
  endfacet
  facet normal 0 0 1
    outer loop
      vertex 7.66403 16.2869 20
      vertex 6.38669 13.5724 20
      vertex 8.0374 12.6649 20
    endloop
  endfacet
  facet normal 0 0 1
    outer loop
      vertex 5.56231 17.119 20
      vertex 6.38669 13.5724 20
      vertex 7.66403 16.2869 20
    endloop
  endfacet
  facet normal 0 0 1
    outer loop
      vertex 5.56231 17.119 20
      vertex 4.63525 14.2658 20
      vertex 6.38669 13.5724 20
    endloop
  endfacet
  facet normal 0 0 1
    outer loop
      vertex 3.37286 17.6812 20
      vertex 4.63525 14.2658 20
      vertex 5.56231 17.119 20
    endloop
  endfacet
  facet normal 0 0 1
    outer loop
      vertex 3.37286 17.6812 20
      vertex 2.81072 14.7343 20
      vertex 4.63525 14.2658 20
    endloop
  endfacet
  facet normal 0 0 1
    outer loop
      vertex 1.13023 17.9645 20
      vertex 2.81072 14.7343 20
      vertex 3.37286 17.6812 20
    endloop
  endfacet
  facet normal 0 0 1
    outer loop
      vertex 1.13023 17.9645 20
      vertex 0.941857 14.9704 20
      vertex 2.81072 14.7343 20
    endloop
  endfacet
  facet normal 0 0 1
    outer loop
      vertex 1.13023 17.9645 20
      vertex -0.941857 14.9704 20
      vertex 0.941857 14.9704 20
    endloop
  endfacet
  facet normal -0 0 1
    outer loop
      vertex -1.13023 17.9645 20
      vertex -0.941857 14.9704 20
      vertex 1.13023 17.9645 20
    endloop
  endfacet
  facet normal 0 0 1
    outer loop
      vertex -1.13023 17.9645 20
      vertex -2.81072 14.7343 20
      vertex -0.941857 14.9704 20
    endloop
  endfacet
  facet normal -0 0 1
    outer loop
      vertex -3.37286 17.6812 20
      vertex -2.81072 14.7343 20
      vertex -1.13023 17.9645 20
    endloop
  endfacet
  facet normal 0 0 1
    outer loop
      vertex -3.37286 17.6812 20
      vertex -4.63525 14.2658 20
      vertex -2.81072 14.7343 20
    endloop
  endfacet
  facet normal -0 0 1
    outer loop
      vertex -5.56231 17.119 20
      vertex -4.63525 14.2658 20
      vertex -3.37286 17.6812 20
    endloop
  endfacet
  facet normal 0 0 1
    outer loop
      vertex -5.56231 17.119 20
      vertex -6.38669 13.5724 20
      vertex -4.63525 14.2658 20
    endloop
  endfacet
  facet normal -0 0 1
    outer loop
      vertex -7.66403 16.2869 20
      vertex -6.38669 13.5724 20
      vertex -5.56231 17.119 20
    endloop
  endfacet
  facet normal 0 0 1
    outer loop
      vertex -7.66403 16.2869 20
      vertex -8.0374 12.6649 20
      vertex -6.38669 13.5724 20
    endloop
  endfacet
  facet normal -0 0 1
    outer loop
      vertex -9.64488 15.1979 20
      vertex -8.0374 12.6649 20
      vertex -7.66403 16.2869 20
    endloop
  endfacet
  facet normal 0 0 1
    outer loop
      vertex -8.0374 12.6649 20
      vertex -9.64488 15.1979 20
      vertex -9.56136 11.5577 20
    endloop
  endfacet
  facet normal -0 0 1
    outer loop
      vertex -11.4736 13.8692 20
      vertex -9.56136 11.5577 20
      vertex -9.64488 15.1979 20
    endloop
  endfacet
  facet normal 0 0 1
    outer loop
      vertex -9.56136 11.5577 20
      vertex -11.4736 13.8692 20
      vertex -10.9345 10.2682 20
    endloop
  endfacet
  facet normal -0 0 1
    outer loop
      vertex -13.1214 12.3218 20
      vertex -10.9345 10.2682 20
      vertex -11.4736 13.8692 20
    endloop
  endfacet
  facet normal 0 0 1
    outer loop
      vertex -10.9345 10.2682 20
      vertex -13.1214 12.3218 20
      vertex -12.1353 8.81678 20
    endloop
  endfacet
  facet normal -0 0 1
    outer loop
      vertex -14.5623 10.5801 20
      vertex -12.1353 8.81678 20
      vertex -13.1214 12.3218 20
    endloop
  endfacet
  facet normal 0 0 1
    outer loop
      vertex -12.1353 8.81678 20
      vertex -14.5623 10.5801 20
      vertex -13.1446 7.22631 20
    endloop
  endfacet
  facet normal -0 0 1
    outer loop
      vertex -15.7735 8.67157 20
      vertex -13.1446 7.22631 20
      vertex -14.5623 10.5801 20
    endloop
  endfacet
  facet normal 0 0 1
    outer loop
      vertex -13.1446 7.22631 20
      vertex -15.7735 8.67157 20
      vertex -13.9466 5.52187 20
    endloop
  endfacet
  facet normal -0 0 1
    outer loop
      vertex -16.736 6.62624 20
      vertex -13.9466 5.52187 20
      vertex -15.7735 8.67157 20
    endloop
  endfacet
  facet normal 0 0 1
    outer loop
      vertex -13.9466 5.52187 20
      vertex -16.736 6.62624 20
      vertex -14.5287 3.73035 20
    endloop
  endfacet
  facet normal -0 0 1
    outer loop
      vertex -17.4345 4.47642 20
      vertex -14.5287 3.73035 20
      vertex -16.736 6.62624 20
    endloop
  endfacet
  facet normal 0 0 1
    outer loop
      vertex 17.4345 -4.47642 20
      vertex 14.5287 -3.73035 20
      vertex 16.736 -6.62624 20
    endloop
  endfacet
  facet normal -0 0 1
    outer loop
      vertex 13.9466 -5.52187 20
      vertex 16.736 -6.62624 20
      vertex 14.5287 -3.73035 20
    endloop
  endfacet
  facet normal 0 0 1
    outer loop
      vertex 16.736 -6.62624 20
      vertex 13.9466 -5.52187 20
      vertex 15.7735 -8.67157 20
    endloop
  endfacet
  facet normal -0 0 1
    outer loop
      vertex 13.1446 -7.22631 20
      vertex 15.7735 -8.67157 20
      vertex 13.9466 -5.52187 20
    endloop
  endfacet
  facet normal 0 0 1
    outer loop
      vertex 15.7735 -8.67157 20
      vertex 13.1446 -7.22631 20
      vertex 14.5623 -10.5801 20
    endloop
  endfacet
  facet normal -0 0 1
    outer loop
      vertex 12.1353 -8.81678 20
      vertex 14.5623 -10.5801 20
      vertex 13.1446 -7.22631 20
    endloop
  endfacet
  facet normal 0 0 1
    outer loop
      vertex 14.5623 -10.5801 20
      vertex 12.1353 -8.81678 20
      vertex 13.1214 -12.3218 20
    endloop
  endfacet
  facet normal -0 0 1
    outer loop
      vertex 10.9345 -10.2682 20
      vertex 13.1214 -12.3218 20
      vertex 12.1353 -8.81678 20
    endloop
  endfacet
  facet normal 0 0 1
    outer loop
      vertex 13.1214 -12.3218 20
      vertex 10.9345 -10.2682 20
      vertex 11.4736 -13.8692 20
    endloop
  endfacet
  facet normal -0 0 1
    outer loop
      vertex 9.56136 -11.5577 20
      vertex 11.4736 -13.8692 20
      vertex 10.9345 -10.2682 20
    endloop
  endfacet
  facet normal 0 0 1
    outer loop
      vertex 11.4736 -13.8692 20
      vertex 9.56136 -11.5577 20
      vertex 9.64488 -15.1979 20
    endloop
  endfacet
  facet normal -0 0 1
    outer loop
      vertex 8.0374 -12.6649 20
      vertex 9.64488 -15.1979 20
      vertex 9.56136 -11.5577 20
    endloop
  endfacet
  facet normal 0 0 1
    outer loop
      vertex 8.0374 -12.6649 20
      vertex 7.66403 -16.2869 20
      vertex 9.64488 -15.1979 20
    endloop
  endfacet
  facet normal -0 0 1
    outer loop
      vertex 6.38669 -13.5724 20
      vertex 7.66403 -16.2869 20
      vertex 8.0374 -12.6649 20
    endloop
  endfacet
  facet normal 0 0 1
    outer loop
      vertex 6.38669 -13.5724 20
      vertex 5.56231 -17.119 20
      vertex 7.66403 -16.2869 20
    endloop
  endfacet
  facet normal -0 0 1
    outer loop
      vertex 4.63525 -14.2658 20
      vertex 5.56231 -17.119 20
      vertex 6.38669 -13.5724 20
    endloop
  endfacet
  facet normal 0 0 1
    outer loop
      vertex 4.63525 -14.2658 20
      vertex 3.37286 -17.6812 20
      vertex 5.56231 -17.119 20
    endloop
  endfacet
  facet normal -0 0 1
    outer loop
      vertex 2.81072 -14.7343 20
      vertex 3.37286 -17.6812 20
      vertex 4.63525 -14.2658 20
    endloop
  endfacet
  facet normal 0 0 1
    outer loop
      vertex 2.81072 -14.7343 20
      vertex 1.13023 -17.9645 20
      vertex 3.37286 -17.6812 20
    endloop
  endfacet
  facet normal -0 0 1
    outer loop
      vertex 0.941857 -14.9704 20
      vertex 1.13023 -17.9645 20
      vertex 2.81072 -14.7343 20
    endloop
  endfacet
  facet normal -0 0 1
    outer loop
      vertex -0.941857 -14.9704 20
      vertex 1.13023 -17.9645 20
      vertex 0.941857 -14.9704 20
    endloop
  endfacet
  facet normal 0 0 1
    outer loop
      vertex -0.941857 -14.9704 20
      vertex -1.13023 -17.9645 20
      vertex 1.13023 -17.9645 20
    endloop
  endfacet
  facet normal 0 0 1
    outer loop
      vertex -2.81072 -14.7343 20
      vertex -1.13023 -17.9645 20
      vertex -0.941857 -14.9704 20
    endloop
  endfacet
  facet normal 0 0 1
    outer loop
      vertex -2.81072 -14.7343 20
      vertex -3.37286 -17.6812 20
      vertex -1.13023 -17.9645 20
    endloop
  endfacet
  facet normal 0 0 1
    outer loop
      vertex -4.63525 -14.2658 20
      vertex -3.37286 -17.6812 20
      vertex -2.81072 -14.7343 20
    endloop
  endfacet
  facet normal 0 0 1
    outer loop
      vertex -4.63525 -14.2658 20
      vertex -5.56231 -17.119 20
      vertex -3.37286 -17.6812 20
    endloop
  endfacet
  facet normal 0 0 1
    outer loop
      vertex -6.38669 -13.5724 20
      vertex -5.56231 -17.119 20
      vertex -4.63525 -14.2658 20
    endloop
  endfacet
  facet normal 0 0 1
    outer loop
      vertex -6.38669 -13.5724 20
      vertex -7.66403 -16.2869 20
      vertex -5.56231 -17.119 20
    endloop
  endfacet
  facet normal 0 0 1
    outer loop
      vertex -8.0374 -12.6649 20
      vertex -7.66403 -16.2869 20
      vertex -6.38669 -13.5724 20
    endloop
  endfacet
  facet normal 0 0 1
    outer loop
      vertex -9.64488 -15.1979 20
      vertex -8.0374 -12.6649 20
      vertex -9.56136 -11.5577 20
    endloop
  endfacet
  facet normal 0 0 1
    outer loop
      vertex -8.0374 -12.6649 20
      vertex -9.64488 -15.1979 20
      vertex -7.66403 -16.2869 20
    endloop
  endfacet
  facet normal 0 0 1
    outer loop
      vertex -11.4736 -13.8692 20
      vertex -9.56136 -11.5577 20
      vertex -10.9345 -10.2682 20
    endloop
  endfacet
  facet normal 0 0 1
    outer loop
      vertex -9.56136 -11.5577 20
      vertex -11.4736 -13.8692 20
      vertex -9.64488 -15.1979 20
    endloop
  endfacet
  facet normal 0 0 1
    outer loop
      vertex -13.1214 -12.3218 20
      vertex -10.9345 -10.2682 20
      vertex -12.1353 -8.81678 20
    endloop
  endfacet
  facet normal 0 0 1
    outer loop
      vertex -10.9345 -10.2682 20
      vertex -13.1214 -12.3218 20
      vertex -11.4736 -13.8692 20
    endloop
  endfacet
  facet normal 0 0 1
    outer loop
      vertex -14.5623 -10.5801 20
      vertex -12.1353 -8.81678 20
      vertex -13.1446 -7.22631 20
    endloop
  endfacet
  facet normal 0 0 1
    outer loop
      vertex -15.7735 -8.67157 20
      vertex -13.1446 -7.22631 20
      vertex -13.9466 -5.52187 20
    endloop
  endfacet
  facet normal 0 0 1
    outer loop
      vertex -16.736 -6.62624 20
      vertex -13.9466 -5.52187 20
      vertex -14.5287 -3.73035 20
    endloop
  endfacet
  facet normal 0 0 1
    outer loop
      vertex -12.1353 -8.81678 20
      vertex -14.5623 -10.5801 20
      vertex -13.1214 -12.3218 20
    endloop
  endfacet
  facet normal 0 0 1
    outer loop
      vertex -17.4345 -4.47642 20
      vertex -14.5287 -3.73035 20
      vertex -14.8817 -1.88 20
    endloop
  endfacet
  facet normal 0 0 1
    outer loop
      vertex -17.8581 -2.256 20
      vertex -14.8817 -1.88 20
      vertex -15 0 20
    endloop
  endfacet
  facet normal 0 0 1
    outer loop
      vertex -14.5287 3.73035 20
      vertex -17.4345 4.47642 20
      vertex -14.8817 1.88 20
    endloop
  endfacet
  facet normal 0 0 1
    outer loop
      vertex -13.1446 -7.22631 20
      vertex -15.7735 -8.67157 20
      vertex -14.5623 -10.5801 20
    endloop
  endfacet
  facet normal -0 0 1
    outer loop
      vertex -17.8581 2.256 20
      vertex -14.8817 1.88 20
      vertex -17.4345 4.47642 20
    endloop
  endfacet
  facet normal 0 0 1
    outer loop
      vertex -13.9466 -5.52187 20
      vertex -16.736 -6.62624 20
      vertex -15.7735 -8.67157 20
    endloop
  endfacet
  facet normal 0 0 1
    outer loop
      vertex -14.8817 1.88 20
      vertex -17.8581 2.256 20
      vertex -15 0 20
    endloop
  endfacet
  facet normal 0 0 1
    outer loop
      vertex -14.5287 -3.73035 20
      vertex -17.4345 -4.47642 20
      vertex -16.736 -6.62624 20
    endloop
  endfacet
  facet normal 0 0 1
    outer loop
      vertex -18 0 20
      vertex -15 0 20
      vertex -17.8581 2.256 20
    endloop
  endfacet
  facet normal 0 0 1
    outer loop
      vertex -14.8817 -1.88 20
      vertex -17.8581 -2.256 20
      vertex -17.4345 -4.47642 20
    endloop
  endfacet
  facet normal 0 0 1
    outer loop
      vertex -15 0 20
      vertex -18 0 20
      vertex -17.8581 -2.256 20
    endloop
  endfacet
  facet normal 0.770504 -0.637435 0
    outer loop
      vertex 13.1214 -12.3218 20
      vertex 14.5623 -10.5801 -20
      vertex 14.5623 -10.5801 20
    endloop
  endfacet
  facet normal 0.770504 -0.637435 0
    outer loop
      vertex 14.5623 -10.5801 -20
      vertex 13.1214 -12.3218 20
      vertex 13.1214 -12.3218 -20
    endloop
  endfacet
  facet normal -0.844326 0.53583 0
    outer loop
      vertex -15.7735 8.67157 -20
      vertex -14.5623 10.5801 20
      vertex -14.5623 10.5801 -20
    endloop
  endfacet
  facet normal -0.844326 0.53583 0
    outer loop
      vertex -14.5623 10.5801 20
      vertex -15.7735 8.67157 -20
      vertex -15.7735 8.67157 20
    endloop
  endfacet
  facet normal 0 1 -0
    outer loop
      vertex 0.941857 -14.9704 -20
      vertex -0.941857 -14.9704 20
      vertex 0.941857 -14.9704 20
    endloop
  endfacet
  facet normal 0 1 0
    outer loop
      vertex -0.941857 -14.9704 20
      vertex 0.941857 -14.9704 -20
      vertex -0.941857 -14.9704 -20
    endloop
  endfacet
  facet normal -0.982285 -0.187395 0
    outer loop
      vertex 14.8817 1.88 -20
      vertex 14.5287 3.73035 20
      vertex 14.5287 3.73035 -20
    endloop
  endfacet
  facet normal -0.982285 -0.187395 0
    outer loop
      vertex 14.5287 3.73035 20
      vertex 14.8817 1.88 -20
      vertex 14.8817 1.88 20
    endloop
  endfacet
  facet normal -0.998026 -0.0628013 0
    outer loop
      vertex 15 0 -20
      vertex 14.8817 1.88 20
      vertex 14.8817 1.88 -20
    endloop
  endfacet
  facet normal -0.998026 -0.0628013 0
    outer loop
      vertex 14.8817 1.88 20
      vertex 15 0 -20
      vertex 15 0 20
    endloop
  endfacet
  facet normal -0.951057 -0.309017 0
    outer loop
      vertex 14.5287 3.73035 -20
      vertex 13.9466 5.52187 20
      vertex 13.9466 5.52187 -20
    endloop
  endfacet
  facet normal -0.951057 -0.309017 0
    outer loop
      vertex 13.9466 5.52187 20
      vertex 14.5287 3.73035 -20
      vertex 14.5287 3.73035 20
    endloop
  endfacet
  facet normal -0.904837 0.425758 0
    outer loop
      vertex 13.1446 -7.22631 -20
      vertex 13.9466 -5.52187 20
      vertex 13.9466 -5.52187 -20
    endloop
  endfacet
  facet normal -0.904837 0.425758 0
    outer loop
      vertex 13.9466 -5.52187 20
      vertex 13.1446 -7.22631 -20
      vertex 13.1446 -7.22631 20
    endloop
  endfacet
  facet normal -0.844338 -0.535811 0
    outer loop
      vertex 13.1446 7.22631 -20
      vertex 12.1353 8.81678 20
      vertex 12.1353 8.81678 -20
    endloop
  endfacet
  facet normal -0.844338 -0.535811 0
    outer loop
      vertex 12.1353 8.81678 20
      vertex 13.1446 7.22631 -20
      vertex 13.1446 7.22631 20
    endloop
  endfacet
  facet normal -0.951057 0.309017 0
    outer loop
      vertex 13.9466 -5.52187 -20
      vertex 14.5287 -3.73035 20
      vertex 14.5287 -3.73035 -20
    endloop
  endfacet
  facet normal -0.951057 0.309017 0
    outer loop
      vertex 14.5287 -3.73035 20
      vertex 13.9466 -5.52187 -20
      vertex 13.9466 -5.52187 20
    endloop
  endfacet
  facet normal -0.368104 -0.929785 0
    outer loop
      vertex 4.63525 14.2658 -20
      vertex 6.38669 13.5724 20
      vertex 4.63525 14.2658 20
    endloop
  endfacet
  facet normal -0.368104 -0.929785 -0
    outer loop
      vertex 6.38669 13.5724 20
      vertex 4.63525 14.2658 -20
      vertex 6.38669 13.5724 -20
    endloop
  endfacet
  facet normal -0.998026 0.0628013 0
    outer loop
      vertex 14.8817 -1.88 -20
      vertex 15 0 20
      vertex 15 0 -20
    endloop
  endfacet
  facet normal -0.998026 0.0628013 0
    outer loop
      vertex 15 0 20
      vertex 14.8817 -1.88 -20
      vertex 14.8817 -1.88 20
    endloop
  endfacet
  facet normal -0.368104 0.929785 0
    outer loop
      vertex 6.38669 -13.5724 -20
      vertex 4.63525 -14.2658 20
      vertex 6.38669 -13.5724 20
    endloop
  endfacet
  facet normal -0.368104 0.929785 0
    outer loop
      vertex 4.63525 -14.2658 20
      vertex 6.38669 -13.5724 -20
      vertex 4.63525 -14.2658 -20
    endloop
  endfacet
  facet normal -0.770492 -0.63745 0
    outer loop
      vertex 12.1353 8.81678 -20
      vertex 10.9345 10.2682 20
      vertex 10.9345 10.2682 -20
    endloop
  endfacet
  facet normal -0.770492 -0.63745 0
    outer loop
      vertex 10.9345 10.2682 20
      vertex 12.1353 8.81678 -20
      vertex 12.1353 8.81678 20
    endloop
  endfacet
  facet normal -0.904837 -0.425758 0
    outer loop
      vertex 13.9466 5.52187 -20
      vertex 13.1446 7.22631 20
      vertex 13.1446 7.22631 -20
    endloop
  endfacet
  facet normal -0.904837 -0.425758 0
    outer loop
      vertex 13.1446 7.22631 20
      vertex 13.9466 5.52187 -20
      vertex 13.9466 5.52187 20
    endloop
  endfacet
  facet normal 0.684557 0.728959 -0
    outer loop
      vertex -9.56136 -11.5577 -20
      vertex -10.9345 -10.2682 20
      vertex -9.56136 -11.5577 20
    endloop
  endfacet
  facet normal 0.684557 0.728959 0
    outer loop
      vertex -10.9345 -10.2682 20
      vertex -9.56136 -11.5577 -20
      vertex -10.9345 -10.2682 -20
    endloop
  endfacet
  facet normal 0.904837 0.425758 0
    outer loop
      vertex -13.1446 -7.22631 20
      vertex -13.9466 -5.52187 -20
      vertex -13.9466 -5.52187 20
    endloop
  endfacet
  facet normal 0.904837 0.425758 0
    outer loop
      vertex -13.9466 -5.52187 -20
      vertex -13.1446 -7.22631 20
      vertex -13.1446 -7.22631 -20
    endloop
  endfacet
  facet normal 0.48176 0.876303 -0
    outer loop
      vertex -6.38669 -13.5724 -20
      vertex -8.0374 -12.6649 20
      vertex -6.38669 -13.5724 20
    endloop
  endfacet
  facet normal 0.48176 0.876303 0
    outer loop
      vertex -8.0374 -12.6649 20
      vertex -6.38669 -13.5724 -20
      vertex -8.0374 -12.6649 -20
    endloop
  endfacet
  facet normal 0.844338 0.535811 0
    outer loop
      vertex -12.1353 -8.81678 20
      vertex -13.1446 -7.22631 -20
      vertex -13.1446 -7.22631 20
    endloop
  endfacet
  facet normal 0.844338 0.535811 0
    outer loop
      vertex -13.1446 -7.22631 -20
      vertex -12.1353 -8.81678 20
      vertex -12.1353 -8.81678 -20
    endloop
  endfacet
  facet normal 0.684557 -0.728959 0
    outer loop
      vertex -10.9345 10.2682 -20
      vertex -9.56136 11.5577 20
      vertex -10.9345 10.2682 20
    endloop
  endfacet
  facet normal 0.684557 -0.728959 0
    outer loop
      vertex -9.56136 11.5577 20
      vertex -10.9345 10.2682 -20
      vertex -9.56136 11.5577 -20
    endloop
  endfacet
  facet normal 0.48176 -0.876303 0
    outer loop
      vertex -8.0374 12.6649 -20
      vertex -6.38669 13.5724 20
      vertex -8.0374 12.6649 20
    endloop
  endfacet
  facet normal 0.48176 -0.876303 0
    outer loop
      vertex -6.38669 13.5724 20
      vertex -8.0374 12.6649 -20
      vertex -6.38669 13.5724 -20
    endloop
  endfacet
  facet normal -0.48176 0.876303 0
    outer loop
      vertex 8.0374 -12.6649 -20
      vertex 6.38669 -13.5724 20
      vertex 8.0374 -12.6649 20
    endloop
  endfacet
  facet normal -0.48176 0.876303 0
    outer loop
      vertex 6.38669 -13.5724 20
      vertex 8.0374 -12.6649 -20
      vertex 6.38669 -13.5724 -20
    endloop
  endfacet
  facet normal 0 -1 0
    outer loop
      vertex -0.941857 14.9704 -20
      vertex 0.941857 14.9704 20
      vertex -0.941857 14.9704 20
    endloop
  endfacet
  facet normal 0 -1 -0
    outer loop
      vertex 0.941857 14.9704 20
      vertex -0.941857 14.9704 -20
      vertex 0.941857 14.9704 -20
    endloop
  endfacet
  facet normal 0.368104 -0.929785 0
    outer loop
      vertex -6.38669 13.5724 -20
      vertex -4.63525 14.2658 20
      vertex -6.38669 13.5724 20
    endloop
  endfacet
  facet normal 0.368104 -0.929785 0
    outer loop
      vertex -4.63525 14.2658 20
      vertex -6.38669 13.5724 -20
      vertex -4.63525 14.2658 -20
    endloop
  endfacet
  facet normal -0.125337 0.992114 0
    outer loop
      vertex 2.81072 -14.7343 -20
      vertex 0.941857 -14.9704 20
      vertex 2.81072 -14.7343 20
    endloop
  endfacet
  facet normal -0.125337 0.992114 0
    outer loop
      vertex 0.941857 -14.9704 20
      vertex 2.81072 -14.7343 -20
      vertex 0.941857 -14.9704 -20
    endloop
  endfacet
  facet normal -0.24871 -0.968578 0
    outer loop
      vertex 2.81072 14.7343 -20
      vertex 4.63525 14.2658 20
      vertex 2.81072 14.7343 20
    endloop
  endfacet
  facet normal -0.24871 -0.968578 -0
    outer loop
      vertex 4.63525 14.2658 20
      vertex 2.81072 14.7343 -20
      vertex 4.63525 14.2658 -20
    endloop
  endfacet
  facet normal 0.587778 0.809022 -0
    outer loop
      vertex -8.0374 -12.6649 -20
      vertex -9.56136 -11.5577 20
      vertex -8.0374 -12.6649 20
    endloop
  endfacet
  facet normal 0.587778 0.809022 0
    outer loop
      vertex -9.56136 -11.5577 20
      vertex -8.0374 -12.6649 -20
      vertex -9.56136 -11.5577 -20
    endloop
  endfacet
  facet normal 0.982285 -0.187395 0
    outer loop
      vertex -14.8817 1.88 20
      vertex -14.5287 3.73035 -20
      vertex -14.5287 3.73035 20
    endloop
  endfacet
  facet normal 0.982285 -0.187395 0
    outer loop
      vertex -14.5287 3.73035 -20
      vertex -14.8817 1.88 20
      vertex -14.8817 1.88 -20
    endloop
  endfacet
  facet normal -0.587778 -0.809022 0
    outer loop
      vertex 8.0374 12.6649 -20
      vertex 9.56136 11.5577 20
      vertex 8.0374 12.6649 20
    endloop
  endfacet
  facet normal -0.587778 -0.809022 -0
    outer loop
      vertex 9.56136 11.5577 20
      vertex 8.0374 12.6649 -20
      vertex 9.56136 11.5577 -20
    endloop
  endfacet
  facet normal 0.951057 -0.309017 0
    outer loop
      vertex -14.5287 3.73035 20
      vertex -13.9466 5.52187 -20
      vertex -13.9466 5.52187 20
    endloop
  endfacet
  facet normal 0.951057 -0.309017 0
    outer loop
      vertex -13.9466 5.52187 -20
      vertex -14.5287 3.73035 20
      vertex -14.5287 3.73035 -20
    endloop
  endfacet
  facet normal -0.125337 -0.992114 0
    outer loop
      vertex 0.941857 14.9704 -20
      vertex 2.81072 14.7343 20
      vertex 0.941857 14.9704 20
    endloop
  endfacet
  facet normal -0.125337 -0.992114 -0
    outer loop
      vertex 2.81072 14.7343 20
      vertex 0.941857 14.9704 -20
      vertex 2.81072 14.7343 -20
    endloop
  endfacet
  facet normal 0.951057 0.309017 0
    outer loop
      vertex -13.9466 -5.52187 20
      vertex -14.5287 -3.73035 -20
      vertex -14.5287 -3.73035 20
    endloop
  endfacet
  facet normal 0.951057 0.309017 0
    outer loop
      vertex -14.5287 -3.73035 -20
      vertex -13.9466 -5.52187 20
      vertex -13.9466 -5.52187 -20
    endloop
  endfacet
  facet normal -0.24871 0.968578 0
    outer loop
      vertex 4.63525 -14.2658 -20
      vertex 2.81072 -14.7343 20
      vertex 4.63525 -14.2658 20
    endloop
  endfacet
  facet normal -0.24871 0.968578 0
    outer loop
      vertex 2.81072 -14.7343 20
      vertex 4.63525 -14.2658 -20
      vertex 2.81072 -14.7343 -20
    endloop
  endfacet
  facet normal 0.982285 0.187395 0
    outer loop
      vertex -14.5287 -3.73035 20
      vertex -14.8817 -1.88 -20
      vertex -14.8817 -1.88 20
    endloop
  endfacet
  facet normal 0.982285 0.187395 0
    outer loop
      vertex -14.8817 -1.88 -20
      vertex -14.5287 -3.73035 20
      vertex -14.5287 -3.73035 -20
    endloop
  endfacet
  facet normal 0.368104 0.929785 -0
    outer loop
      vertex -4.63525 -14.2658 -20
      vertex -6.38669 -13.5724 20
      vertex -4.63525 -14.2658 20
    endloop
  endfacet
  facet normal 0.368104 0.929785 0
    outer loop
      vertex -6.38669 -13.5724 20
      vertex -4.63525 -14.2658 -20
      vertex -6.38669 -13.5724 -20
    endloop
  endfacet
  facet normal -0.982285 0.187395 0
    outer loop
      vertex 14.5287 -3.73035 -20
      vertex 14.8817 -1.88 20
      vertex 14.8817 -1.88 -20
    endloop
  endfacet
  facet normal -0.982285 0.187395 0
    outer loop
      vertex 14.8817 -1.88 20
      vertex 14.5287 -3.73035 -20
      vertex 14.5287 -3.73035 20
    endloop
  endfacet
  facet normal 0.904837 -0.425758 0
    outer loop
      vertex -13.9466 5.52187 20
      vertex -13.1446 7.22631 -20
      vertex -13.1446 7.22631 20
    endloop
  endfacet
  facet normal 0.904837 -0.425758 0
    outer loop
      vertex -13.1446 7.22631 -20
      vertex -13.9466 5.52187 20
      vertex -13.9466 5.52187 -20
    endloop
  endfacet
  facet normal 0.998026 -0.0628013 0
    outer loop
      vertex -15 0 20
      vertex -14.8817 1.88 -20
      vertex -14.8817 1.88 20
    endloop
  endfacet
  facet normal 0.998026 -0.0628013 0
    outer loop
      vertex -14.8817 1.88 -20
      vertex -15 0 20
      vertex -15 0 -20
    endloop
  endfacet
  facet normal -0.844338 0.535811 0
    outer loop
      vertex 12.1353 -8.81678 -20
      vertex 13.1446 -7.22631 20
      vertex 13.1446 -7.22631 -20
    endloop
  endfacet
  facet normal -0.844338 0.535811 0
    outer loop
      vertex 13.1446 -7.22631 20
      vertex 12.1353 -8.81678 -20
      vertex 12.1353 -8.81678 20
    endloop
  endfacet
  facet normal 0.24871 0.968578 -0
    outer loop
      vertex -2.81072 -14.7343 -20
      vertex -4.63525 -14.2658 20
      vertex -2.81072 -14.7343 20
    endloop
  endfacet
  facet normal 0.24871 0.968578 0
    outer loop
      vertex -4.63525 -14.2658 20
      vertex -2.81072 -14.7343 -20
      vertex -4.63525 -14.2658 -20
    endloop
  endfacet
  facet normal -0.587778 0.809022 0
    outer loop
      vertex 9.56136 -11.5577 -20
      vertex 8.0374 -12.6649 20
      vertex 9.56136 -11.5577 20
    endloop
  endfacet
  facet normal -0.587778 0.809022 0
    outer loop
      vertex 8.0374 -12.6649 20
      vertex 9.56136 -11.5577 -20
      vertex 8.0374 -12.6649 -20
    endloop
  endfacet
  facet normal -0.48176 -0.876303 0
    outer loop
      vertex 6.38669 13.5724 -20
      vertex 8.0374 12.6649 20
      vertex 6.38669 13.5724 20
    endloop
  endfacet
  facet normal -0.48176 -0.876303 -0
    outer loop
      vertex 8.0374 12.6649 20
      vertex 6.38669 13.5724 -20
      vertex 8.0374 12.6649 -20
    endloop
  endfacet
  facet normal 0.998026 0.0628013 0
    outer loop
      vertex -14.8817 -1.88 20
      vertex -15 0 -20
      vertex -15 0 20
    endloop
  endfacet
  facet normal 0.998026 0.0628013 0
    outer loop
      vertex -15 0 -20
      vertex -14.8817 -1.88 20
      vertex -14.8817 -1.88 -20
    endloop
  endfacet
  facet normal 0.24871 -0.968578 0
    outer loop
      vertex -4.63525 14.2658 -20
      vertex -2.81072 14.7343 20
      vertex -4.63525 14.2658 20
    endloop
  endfacet
  facet normal 0.24871 -0.968578 0
    outer loop
      vertex -2.81072 14.7343 20
      vertex -4.63525 14.2658 -20
      vertex -2.81072 14.7343 -20
    endloop
  endfacet
  facet normal 0.125337 0.992114 -0
    outer loop
      vertex -0.941857 -14.9704 -20
      vertex -2.81072 -14.7343 20
      vertex -0.941857 -14.9704 20
    endloop
  endfacet
  facet normal 0.125337 0.992114 0
    outer loop
      vertex -2.81072 -14.7343 20
      vertex -0.941857 -14.9704 -20
      vertex -2.81072 -14.7343 -20
    endloop
  endfacet
  facet normal 0.125337 -0.992114 0
    outer loop
      vertex -2.81072 14.7343 -20
      vertex -0.941857 14.9704 20
      vertex -2.81072 14.7343 20
    endloop
  endfacet
  facet normal 0.125337 -0.992114 0
    outer loop
      vertex -0.941857 14.9704 20
      vertex -2.81072 14.7343 -20
      vertex -0.941857 14.9704 -20
    endloop
  endfacet
  facet normal -0.684557 -0.728959 0
    outer loop
      vertex 9.56136 11.5577 -20
      vertex 10.9345 10.2682 20
      vertex 9.56136 11.5577 20
    endloop
  endfacet
  facet normal -0.684557 -0.728959 -0
    outer loop
      vertex 10.9345 10.2682 20
      vertex 9.56136 11.5577 -20
      vertex 10.9345 10.2682 -20
    endloop
  endfacet
  facet normal 0.770492 0.63745 0
    outer loop
      vertex -10.9345 -10.2682 20
      vertex -12.1353 -8.81678 -20
      vertex -12.1353 -8.81678 20
    endloop
  endfacet
  facet normal 0.770492 0.63745 0
    outer loop
      vertex -12.1353 -8.81678 -20
      vertex -10.9345 -10.2682 20
      vertex -10.9345 -10.2682 -20
    endloop
  endfacet
  facet normal 0.770492 -0.63745 0
    outer loop
      vertex -12.1353 8.81678 20
      vertex -10.9345 10.2682 -20
      vertex -10.9345 10.2682 20
    endloop
  endfacet
  facet normal 0.770492 -0.63745 0
    outer loop
      vertex -10.9345 10.2682 -20
      vertex -12.1353 8.81678 20
      vertex -12.1353 8.81678 -20
    endloop
  endfacet
  facet normal -0.684557 0.728959 0
    outer loop
      vertex 10.9345 -10.2682 -20
      vertex 9.56136 -11.5577 20
      vertex 10.9345 -10.2682 20
    endloop
  endfacet
  facet normal -0.684557 0.728959 0
    outer loop
      vertex 9.56136 -11.5577 20
      vertex 10.9345 -10.2682 -20
      vertex 9.56136 -11.5577 -20
    endloop
  endfacet
  facet normal -0.770492 0.63745 0
    outer loop
      vertex 10.9345 -10.2682 -20
      vertex 12.1353 -8.81678 20
      vertex 12.1353 -8.81678 -20
    endloop
  endfacet
  facet normal -0.770492 0.63745 0
    outer loop
      vertex 12.1353 -8.81678 20
      vertex 10.9345 -10.2682 -20
      vertex 10.9345 -10.2682 20
    endloop
  endfacet
  facet normal 0.587778 -0.809022 0
    outer loop
      vertex -9.56136 11.5577 -20
      vertex -8.0374 12.6649 20
      vertex -9.56136 11.5577 20
    endloop
  endfacet
  facet normal 0.587778 -0.809022 0
    outer loop
      vertex -8.0374 12.6649 20
      vertex -9.56136 11.5577 -20
      vertex -8.0374 12.6649 -20
    endloop
  endfacet
  facet normal 0.844338 -0.535811 0
    outer loop
      vertex -13.1446 7.22631 20
      vertex -12.1353 8.81678 -20
      vertex -12.1353 8.81678 20
    endloop
  endfacet
  facet normal 0.844338 -0.535811 0
    outer loop
      vertex -12.1353 8.81678 -20
      vertex -13.1446 7.22631 20
      vertex -13.1446 7.22631 -20
    endloop
  endfacet
endsolid OpenSCAD_Model
