solid OpenSCAD_Model
  facet normal 1 -0 0
    outer loop
      vertex 200 0 50
      vertex 200 100 0
      vertex 200 100 50
    endloop
  endfacet
  facet normal 1 0 0
    outer loop
      vertex 200 100 0
      vertex 200 0 50
      vertex 200 0 0
    endloop
  endfacet
  facet normal 0 0 1
    outer loop
      vertex 200 100 50
      vertex 197 97 50
      vertex 200 0 50
    endloop
  endfacet
  facet normal 0 0 1
    outer loop
      vertex 200 100 50
      vertex 3 97 50
      vertex 197 97 50
    endloop
  endfacet
  facet normal 0 0 1
    outer loop
      vertex 3 97 50
      vertex 0 100 50
      vertex 3 3 50
    endloop
  endfacet
  facet normal -0 0 1
    outer loop
      vertex 0 100 50
      vertex 3 97 50
      vertex 200 100 50
    endloop
  endfacet
  facet normal -0 0 1
    outer loop
      vertex 197 3 50
      vertex 200 0 50
      vertex 197 97 50
    endloop
  endfacet
  facet normal -0 0 1
    outer loop
      vertex 3 3 50
      vertex 200 0 50
      vertex 197 3 50
    endloop
  endfacet
  facet normal 0 0 1
    outer loop
      vertex 3 3 50
      vertex 0 0 50
      vertex 200 0 50
    endloop
  endfacet
  facet normal 0 0 1
    outer loop
      vertex 0 0 50
      vertex 3 3 50
      vertex 0 100 50
    endloop
  endfacet
  facet normal 0 0 -1
    outer loop
      vertex 0 0 0
      vertex 200 100 0
      vertex 200 0 0
    endloop
  endfacet
  facet normal -0 0 -1
    outer loop
      vertex 200 100 0
      vertex 0 0 0
      vertex 0 100 0
    endloop
  endfacet
  facet normal -1 0 0
    outer loop
      vertex 0 0 0
      vertex 0 100 50
      vertex 0 100 0
    endloop
  endfacet
  facet normal -1 -0 0
    outer loop
      vertex 0 100 50
      vertex 0 0 0
      vertex 0 0 50
    endloop
  endfacet
  facet normal 0 1 -0
    outer loop
      vertex 200 100 0
      vertex 0 100 50
      vertex 200 100 50
    endloop
  endfacet
  facet normal 0 1 0
    outer loop
      vertex 0 100 50
      vertex 200 100 0
      vertex 0 100 0
    endloop
  endfacet
  facet normal 0 -1 0
    outer loop
      vertex 0 0 0
      vertex 200 0 50
      vertex 0 0 50
    endloop
  endfacet
  facet normal 0 -1 -0
    outer loop
      vertex 200 0 50
      vertex 0 0 0
      vertex 200 0 0
    endloop
  endfacet
  facet normal -1 0 0
    outer loop
      vertex 197 3 3
      vertex 197 97 50
      vertex 197 97 3
    endloop
  endfacet
  facet normal -1 -0 0
    outer loop
      vertex 197 97 50
      vertex 197 3 3
      vertex 197 3 50
    endloop
  endfacet
  facet normal -0 0 1
    outer loop
      vertex 3 97 3
      vertex 197 3 3
      vertex 197 97 3
    endloop
  endfacet
  facet normal 0 0 1
    outer loop
      vertex 197 3 3
      vertex 3 97 3
      vertex 3 3 3
    endloop
  endfacet
  facet normal 1 -0 0
    outer loop
      vertex 3 3 50
      vertex 3 97 3
      vertex 3 97 50
    endloop
  endfacet
  facet normal 1 0 0
    outer loop
      vertex 3 97 3
      vertex 3 3 50
      vertex 3 3 3
    endloop
  endfacet
  facet normal 0 -1 0
    outer loop
      vertex 3 97 3
      vertex 197 97 50
      vertex 3 97 50
    endloop
  endfacet
  facet normal 0 -1 -0
    outer loop
      vertex 197 97 50
      vertex 3 97 3
      vertex 197 97 3
    endloop
  endfacet
  facet normal 0 1 -0
    outer loop
      vertex 197 3 3
      vertex 3 3 50
      vertex 197 3 50
    endloop
  endfacet
  facet normal 0 1 0
    outer loop
      vertex 3 3 50
      vertex 197 3 3
      vertex 3 3 3
    endloop
  endfacet
endsolid OpenSCAD_Model
